<?xml version="1.0" encoding="UTF-8" standalone="no"?>
<svg width="60px" height="44px" viewBox="0 0 60 44" version="1.1" xmlns="http://www.w3.org/2000/svg" xmlns:xlink="http://www.w3.org/1999/xlink" xmlns:sketch="http://www.bohemiancoding.com/sketch/ns">
    <title>Slice 1</title>
    <description>Created with Sketch (http://www.bohemiancoding.com/sketch)</description>
    <defs></defs>
    <g id="Page-1" stroke="none" stroke-width="1" fill="none" fill-rule="evenodd" sketch:type="MSPage">
        <g id="mir_rus" sketch:type="MSLayerGroup" transform="translate(0.000000, 1.000000)" fill="#fff">
            <path d="M1.979,29.387 L4.762,29.387 L4.762,27.532 L1.979,27.532 L1.979,-0.305 L1.051,-0.305 L1.051,33.1 L1.979,33.1 L1.979,29.387 L1.979,29.387 Z" id="Shape" sketch:type="MSShapeGroup"></path>
            <path d="M7.545,33.1 L8.473,33.1 L8.473,23.82 L11.258,23.82 L11.258,21.963 L8.473,21.963 L8.473,-0.305 L7.545,-0.305 L7.545,5.261 L4.762,5.261 L4.762,7.116 L7.545,7.116 L7.545,17.323 L3.834,17.323 L3.834,19.178 L7.545,19.178 L7.545,33.1 L7.545,33.1 Z" id="Shape" sketch:type="MSShapeGroup"></path>
            <path d="M13.114,33.1 L14.042,33.1 L14.042,-0.305 L13.114,-0.305 L13.114,11.757 L10.331,11.757 L10.331,13.612 L13.114,13.612 L13.114,33.1 L13.114,33.1 Z" id="Shape" sketch:type="MSShapeGroup"></path>
            <path d="M18.68,9.9 L23.321,9.9 L23.321,8.046 L18.68,8.046 L18.68,-0.306 L17.752,-0.306 L17.752,33.1 L18.68,33.1 L18.68,31.243 L23.321,31.243 L23.321,29.388 L18.68,29.388 L18.68,9.9 L18.68,9.9 Z" id="Shape" sketch:type="MSShapeGroup"></path>
            <path d="M29.815,25.676 L27.032,25.676 L27.032,-0.304 L26.104,-0.304 L26.104,2.479 L21.463,2.479 L21.463,4.334 L26.104,4.334 L26.104,21.963 L22.391,21.963 L22.391,23.82 L26.104,23.82 L26.104,33.1 L27.032,33.1 L27.032,27.532 L29.815,27.532 L29.815,25.676 L29.815,25.676 Z" id="Shape" sketch:type="MSShapeGroup"></path>
            <path d="M35.383,18.355 L32.598,18.355 L32.598,6.189 L35.383,6.189 L35.383,4.334 L32.598,4.334 L32.598,-0.305 L31.67,-0.305 L31.67,13.613 L28.887,13.613 L28.887,15.468 L31.67,15.468 L31.67,33.1 L32.598,33.1 L32.598,20.211 L35.383,20.211 L35.383,18.355 L35.383,18.355 Z" id="Shape" sketch:type="MSShapeGroup"></path>
            <path d="M38.167,25.676 L42.806,25.676 L42.806,23.82 L38.167,23.82 L38.167,11.758 L43.733,11.758 L43.733,9.9 L38.167,9.9 L38.167,4.334 L43.733,4.334 L43.733,2.479 L38.167,2.479 L38.167,-0.304 L37.239,-0.304 L37.239,33.1 L38.167,33.1 L38.167,25.676 L38.167,25.676 Z" id="Shape" sketch:type="MSShapeGroup"></path>
            <path d="M43.012,31.242 L46.722,31.242 L46.722,33.1 L47.65,33.1 L47.65,-0.305 L46.722,-0.305 L46.722,29.386 L43.012,29.386 L43.012,31.242 L43.012,31.242 Z" id="Shape" sketch:type="MSShapeGroup"></path>
            <path d="M55.795,23.82 L58.58,23.82 L58.58,33.1 L59.508,33.1 L59.508,-0.305 L58.58,-0.305 L58.58,21.963 L55.795,21.963 L55.795,23.82 L55.795,23.82 Z" id="Shape" sketch:type="MSShapeGroup"></path>
            <path d="M41.157,18.148 L44.867,18.148 L44.867,16.293 L41.157,16.293 L41.157,18.148 L41.157,18.148 Z" id="Shape" sketch:type="MSShapeGroup"></path>
            <path d="M52.084,33.1 L53.012,33.1 L53.012,7.221 L55.795,7.221 L55.795,5.366 L53.012,5.366 L53.012,-0.304 L52.084,-0.304 L52.084,12.688 L49.301,12.688 L49.301,14.542 L52.084,14.542 L52.084,33.1 L52.084,33.1 Z" id="Shape" sketch:type="MSShapeGroup"></path>
            <path d="M0.169,38.883 C0.169,37.744 1.089,36.885 2.257,36.885 C2.808,36.885 3.167,37.018 3.437,37.155 C3.496,37.188 3.499,37.229 3.478,37.274 L3.214,37.825 C3.191,37.876 3.146,37.882 3.099,37.86 C2.859,37.739 2.597,37.63 2.242,37.63 C1.584,37.63 1.033,38.167 1.033,38.884 C1.033,39.628 1.56,40.144 2.248,40.144 C2.602,40.144 2.889,40.046 3.135,39.915 C3.186,39.892 3.215,39.892 3.239,39.942 L3.501,40.503 C3.524,40.556 3.513,40.589 3.462,40.612 C3.159,40.766 2.786,40.893 2.243,40.893 C0.981,40.893 0.169,40.113 0.169,38.883 L0.169,38.883 Z" id="Shape" sketch:type="MSShapeGroup"></path>
            <path d="M3.511,40.193 C3.511,40.142 3.552,40.101 3.603,40.101 L4.308,40.101 C4.462,39.833 4.548,39.529 4.593,39.203 C4.644,38.865 4.652,38.492 4.652,38.109 L4.652,37.021 C4.652,36.97 4.691,36.937 4.736,36.937 L7.302,36.937 C7.353,36.937 7.386,36.976 7.386,37.021 L7.386,40.101 L8.159,40.101 C8.212,40.101 8.245,40.142 8.245,40.193 L8.245,42.064 C8.245,42.111 8.212,42.152 8.159,42.152 L7.513,42.152 C7.462,42.152 7.421,42.111 7.421,42.064 L7.421,40.834 L4.335,40.834 L4.335,42.064 C4.335,42.111 4.302,42.152 4.249,42.152 L3.603,42.152 C3.552,42.152 3.511,42.111 3.511,42.064 L3.511,40.193 L3.511,40.193 Z M5.405,39.209 C5.354,39.535 5.274,39.826 5.143,40.102 L6.561,40.102 L6.561,37.67 L5.473,37.67 L5.473,38.109 C5.474,38.492 5.464,38.871 5.405,39.209 L5.405,39.209 Z" id="Shape" sketch:type="MSShapeGroup"></path>
            <path d="M11.647,36.938 C11.7,36.938 11.739,36.977 11.739,37.022 L11.739,37.584 C11.739,37.629 11.7,37.67 11.647,37.67 L9.622,37.67 L9.622,38.512 L11.351,38.512 C11.396,38.512 11.437,38.551 11.437,38.596 L11.437,39.153 C11.437,39.204 11.396,39.245 11.351,39.245 L9.622,39.245 L9.622,40.108 L11.647,40.108 C11.7,40.108 11.739,40.143 11.739,40.194 L11.739,40.749 C11.739,40.796 11.7,40.835 11.647,40.835 L8.889,40.835 C8.836,40.835 8.797,40.796 8.797,40.749 L8.797,37.022 C8.797,36.977 8.836,36.938 8.889,36.938 L11.647,36.938 L11.647,36.938 Z" id="Shape" sketch:type="MSShapeGroup"></path>
            <path d="M12.766,40.834 L12.274,40.834 C12.182,40.834 12.131,40.772 12.206,40.658 C12.405,40.359 12.538,40.004 12.624,39.627 C12.716,39.186 12.743,38.682 12.743,38.109 L12.743,37.021 C12.743,36.976 12.784,36.937 12.829,36.937 L15.651,36.937 C15.698,36.937 15.737,36.976 15.737,37.021 L15.737,40.748 C15.737,40.795 15.698,40.834 15.651,40.834 L14.999,40.834 C14.954,40.834 14.913,40.795 14.913,40.748 L14.913,37.67 L13.567,37.67 L13.567,38.109 C13.567,38.613 13.534,39.197 13.413,39.701 C13.339,40.051 13.155,40.531 12.972,40.744 C12.915,40.818 12.87,40.834 12.766,40.834 L12.766,40.834 Z" id="Shape" sketch:type="MSShapeGroup"></path>
            <path d="M17.002,40.738 C16.979,40.806 16.932,40.834 16.857,40.834 L16.216,40.834 C16.159,40.834 16.136,40.807 16.136,40.766 C16.136,40.748 16.142,40.733 16.148,40.709 L17.482,37.012 C17.5,36.942 17.544,36.918 17.619,36.918 L18.301,36.918 C18.375,36.918 18.422,36.941 18.438,37.012 L19.754,40.709 C19.76,40.732 19.766,40.748 19.766,40.766 C19.766,40.807 19.745,40.834 19.686,40.834 L19.028,40.834 C18.948,40.834 18.903,40.807 18.885,40.738 L18.651,40.045 L17.237,40.045 L17.002,40.738 L17.002,40.738 Z M17.951,37.92 L17.441,39.387 L18.449,39.387 L17.951,37.92 L17.951,37.92 Z" id="Shape" sketch:type="MSShapeGroup"></path>
            <path d="M23.516,36.938 C23.563,36.938 23.602,36.977 23.602,37.022 L23.602,40.749 C23.602,40.796 23.563,40.835 23.516,40.835 L22.864,40.835 C22.819,40.835 22.778,40.796 22.778,40.749 L22.778,39.239 L21.003,39.239 L21.003,40.749 C21.003,40.796 20.97,40.835 20.917,40.835 L20.271,40.835 C20.22,40.835 20.179,40.796 20.179,40.749 L20.179,37.022 C20.179,36.977 20.22,36.938 20.271,36.938 L20.917,36.938 C20.97,36.938 21.003,36.977 21.003,37.022 L21.003,38.512 L22.778,38.512 L22.778,37.022 C22.778,36.977 22.819,36.938 22.864,36.938 L23.516,36.938 L23.516,36.938 Z" id="Shape" sketch:type="MSShapeGroup"></path>
            <path d="M26.657,40.893 C25.489,40.893 24.567,40.102 24.567,38.895 C24.567,37.686 25.489,36.885 26.657,36.885 C27.825,36.885 28.741,37.692 28.741,38.895 C28.741,40.096 27.825,40.893 26.657,40.893 L26.657,40.893 Z M26.657,37.658 C25.958,37.658 25.442,38.195 25.442,38.894 C25.442,39.597 25.958,40.124 26.657,40.124 C27.354,40.124 27.864,39.593 27.864,38.894 C27.864,38.195 27.354,37.658 26.657,37.658 L26.657,37.658 Z" id="Shape" sketch:type="MSShapeGroup"></path>
            <path d="M32.454,40.834 L30.931,40.834 C30.88,40.834 30.839,40.795 30.839,40.748 L30.839,37.021 C30.839,36.976 30.88,36.937 30.931,36.937 L32.111,36.937 C32.437,36.937 32.775,36.976 33.062,37.181 C33.285,37.347 33.439,37.595 33.439,37.925 C33.439,38.321 33.267,38.613 32.953,38.755 L32.953,38.778 C33.508,38.911 33.76,39.264 33.76,39.78 C33.758,40.508 33.106,40.834 32.454,40.834 L32.454,40.834 Z M32.43,37.697 C32.338,37.635 32.225,37.605 32.104,37.605 L31.663,37.605 L31.663,38.521 L32.054,38.521 C32.158,38.521 32.283,38.515 32.392,38.464 C32.517,38.402 32.609,38.275 32.609,38.069 C32.608,37.893 32.54,37.771 32.43,37.697 L32.43,37.697 Z M32.649,39.254 C32.534,39.197 32.385,39.186 32.163,39.186 L31.663,39.186 L31.663,40.166 L32.276,40.166 C32.409,40.166 32.54,40.154 32.643,40.107 C32.803,40.039 32.916,39.914 32.916,39.673 C32.917,39.494 32.836,39.34 32.649,39.254 L32.649,39.254 Z" id="Shape" sketch:type="MSShapeGroup"></path>
            <path d="M37.575,36.938 C37.901,36.938 38.227,36.999 38.509,37.229 C38.8,37.469 38.984,37.84 38.984,38.299 C38.984,38.768 38.785,39.158 38.468,39.399 C38.195,39.61 37.884,39.661 37.575,39.661 L36.688,39.661 L36.688,40.749 C36.688,40.796 36.653,40.835 36.602,40.835 L35.956,40.835 C35.903,40.835 35.864,40.796 35.864,40.749 L35.864,37.022 C35.864,36.977 35.903,36.938 35.956,36.938 L37.575,36.938 L37.575,36.938 Z M37.901,37.771 C37.776,37.691 37.631,37.658 37.467,37.658 L36.688,37.658 L36.688,38.939 L37.45,38.939 C37.61,38.939 37.77,38.918 37.889,38.835 C38.051,38.739 38.147,38.562 38.147,38.298 C38.147,38.041 38.051,37.869 37.901,37.771 L37.901,37.771 Z" id="Shape" sketch:type="MSShapeGroup"></path>
            <path d="M41.535,40.893 C40.367,40.893 39.445,40.102 39.445,38.895 C39.445,37.686 40.367,36.885 41.535,36.885 C42.703,36.885 43.619,37.692 43.619,38.895 C43.619,40.096 42.703,40.893 41.535,40.893 L41.535,40.893 Z M41.535,37.658 C40.838,37.658 40.322,38.195 40.322,38.894 C40.322,39.597 40.838,40.124 41.535,40.124 C42.234,40.124 42.742,39.593 42.742,38.894 C42.742,38.195 42.234,37.658 41.535,37.658 L41.535,37.658 Z" id="Shape" sketch:type="MSShapeGroup"></path>
            <path d="M44.168,38.883 C44.168,37.744 45.088,36.885 46.256,36.885 C46.807,36.885 47.166,37.018 47.436,37.155 C47.495,37.188 47.5,37.229 47.477,37.274 L47.213,37.825 C47.19,37.876 47.145,37.882 47.098,37.86 C46.858,37.739 46.594,37.63 46.239,37.63 C45.583,37.63 45.032,38.167 45.032,38.884 C45.032,39.628 45.559,40.144 46.247,40.144 C46.601,40.144 46.888,40.046 47.134,39.915 C47.185,39.892 47.214,39.892 47.238,39.942 L47.502,40.503 C47.523,40.556 47.512,40.589 47.461,40.612 C47.158,40.766 46.785,40.893 46.24,40.893 C44.98,40.893 44.168,40.113 44.168,38.883 L44.168,38.883 Z" id="Shape" sketch:type="MSShapeGroup"></path>
            <path d="M47.908,38.883 C47.908,37.744 48.83,36.885 49.998,36.885 C50.549,36.885 50.908,37.018 51.178,37.155 C51.235,37.188 51.24,37.229 51.217,37.274 L50.955,37.825 C50.932,37.876 50.887,37.882 50.84,37.86 C50.6,37.739 50.336,37.63 49.981,37.63 C49.323,37.63 48.774,38.167 48.774,38.884 C48.774,39.628 49.301,40.144 49.987,40.144 C50.342,40.144 50.63,40.046 50.876,39.915 C50.927,39.892 50.956,39.892 50.978,39.942 L51.242,40.503 C51.265,40.556 51.254,40.589 51.203,40.612 C50.898,40.766 50.527,40.893 49.982,40.893 C48.723,40.893 47.908,40.113 47.908,38.883 L47.908,38.883 Z" id="Shape" sketch:type="MSShapeGroup"></path>
            <path d="M54.572,38.488 L52.775,40.326 L52.775,40.748 C52.775,40.795 52.74,40.834 52.689,40.834 L52.043,40.834 C51.99,40.834 51.951,40.795 51.951,40.748 L51.951,37.021 C51.951,36.976 51.99,36.937 52.043,36.937 L52.689,36.937 C52.74,36.937 52.775,36.976 52.775,37.021 L52.775,39.312 L54.572,37.474 L54.572,37.027 C54.572,36.976 54.613,36.937 54.658,36.937 L55.31,36.937 C55.357,36.937 55.396,36.976 55.396,37.027 L55.396,40.748 C55.396,40.801 55.357,40.834 55.31,40.834 L54.658,40.834 C54.613,40.834 54.572,40.801 54.572,40.748 L54.572,38.488 L54.572,38.488 Z" id="Shape" sketch:type="MSShapeGroup"></path>
            <path d="M58.883,38.488 L57.086,40.326 L57.086,40.748 C57.086,40.795 57.051,40.834 56.998,40.834 L56.352,40.834 C56.301,40.834 56.262,40.795 56.262,40.748 L56.262,37.021 C56.262,36.976 56.301,36.937 56.352,36.937 L56.998,36.937 C57.051,36.937 57.086,36.976 57.086,37.021 L57.086,39.312 L58.883,37.474 L58.883,37.027 C58.883,36.976 58.924,36.937 58.969,36.937 L59.621,36.937 C59.668,36.937 59.707,36.976 59.707,37.027 L59.707,40.748 C59.707,40.801 59.668,40.834 59.621,40.834 L58.969,40.834 C58.924,40.834 58.883,40.801 58.883,40.748 L58.883,38.488 L58.883,38.488 Z" id="Shape" sketch:type="MSShapeGroup"></path>
        </g>
    </g>
</svg>