<?xml version="1.0" encoding="UTF-8" standalone="no"?>
<svg width="60px" height="43px" viewBox="0 0 60 43" version="1.1" xmlns="http://www.w3.org/2000/svg" xmlns:xlink="http://www.w3.org/1999/xlink" xmlns:sketch="http://www.bohemiancoding.com/sketch/ns">
    <title>Slice 1</title>
    <description>Created with Sketch (http://www.bohemiancoding.com/sketch)</description>
    <defs></defs>
    <g id="Page-1" stroke="none" stroke-width="1" fill="none" fill-rule="evenodd" sketch:type="MSPage">
        <g id="mir_eng" sketch:type="MSLayerGroup" fill="#fff">
            <path d="M1.436,30.045 L4.219,30.045 L4.219,28.19 L1.436,28.19 L1.436,0.353 L0.508,0.353 L0.508,33.758 L1.436,33.758 L1.436,30.045 L1.436,30.045 Z" id="Shape" fill="#000000" sketch:type="MSShapeGroup"></path>
            <path d="M7.002,33.758 L7.93,33.758 L7.93,24.478 L10.715,24.478 L10.715,22.621 L7.93,22.621 L7.93,0.353 L7.002,0.353 L7.002,5.919 L4.219,5.919 L4.219,7.774 L7.002,7.774 L7.002,17.981 L3.291,17.981 L3.291,19.836 L7.002,19.836 L7.002,33.758 L7.002,33.758 Z" id="Shape" fill="#000000" sketch:type="MSShapeGroup"></path>
            <path d="M12.57,33.758 L13.498,33.758 L13.498,0.353 L12.57,0.353 L12.57,12.415 L9.787,12.415 L9.787,14.27 L12.57,14.27 L12.57,33.758 L12.57,33.758 Z" id="Shape" fill="#000000" sketch:type="MSShapeGroup"></path>
            <path d="M18.137,10.558 L22.778,10.558 L22.778,8.704 L18.137,8.704 L18.137,0.352 L17.209,0.352 L17.209,33.757 L18.137,33.757 L18.137,31.9 L22.778,31.9 L22.778,30.045 L18.137,30.045 L18.137,10.558 L18.137,10.558 Z" id="Shape" fill="#000000" sketch:type="MSShapeGroup"></path>
            <path d="M29.271,26.333 L26.488,26.333 L26.488,0.353 L25.56,0.353 L25.56,3.136 L20.919,3.136 L20.919,4.991 L25.56,4.991 L25.56,22.62 L21.847,22.62 L21.847,24.477 L25.56,24.477 L25.56,33.757 L26.488,33.757 L26.488,28.189 L29.271,28.189 L29.271,26.333 L29.271,26.333 Z" id="Shape" fill="#000000" sketch:type="MSShapeGroup"></path>
            <path d="M34.84,19.013 L32.055,19.013 L32.055,6.847 L34.84,6.847 L34.84,4.992 L32.055,4.992 L32.055,0.353 L31.127,0.353 L31.127,14.271 L28.344,14.271 L28.344,16.126 L31.127,16.126 L31.127,33.757 L32.055,33.757 L32.055,20.869 L34.84,20.869 L34.84,19.013 L34.84,19.013 Z" id="Shape" fill="#000000" sketch:type="MSShapeGroup"></path>
            <path d="M37.623,26.333 L42.262,26.333 L42.262,24.478 L37.623,24.478 L37.623,12.416 L43.189,12.416 L43.189,10.559 L37.623,10.559 L37.623,4.993 L43.189,4.993 L43.189,3.138 L37.623,3.138 L37.623,0.355 L36.695,0.355 L36.695,33.76 L37.623,33.76 L37.623,26.333 L37.623,26.333 Z" id="Shape" fill="#000000" sketch:type="MSShapeGroup"></path>
            <path d="M42.469,31.9 L46.18,31.9 L46.18,33.757 L47.108,33.757 L47.108,0.353 L46.18,0.353 L46.18,30.045 L42.469,30.045 L42.469,31.9 L42.469,31.9 Z" id="Shape" fill="#000000" sketch:type="MSShapeGroup"></path>
            <path d="M55.252,24.478 L58.037,24.478 L58.037,33.758 L58.965,33.758 L58.965,0.353 L58.037,0.353 L58.037,22.621 L55.252,22.621 L55.252,24.478 L55.252,24.478 Z" id="Shape" fill="#000000" sketch:type="MSShapeGroup"></path>
            <path d="M40.613,18.806 L44.324,18.806 L44.324,16.951 L40.613,16.951 L40.613,18.806 L40.613,18.806 Z" id="Shape" fill="#000000" sketch:type="MSShapeGroup"></path>
            <path d="M51.541,33.758 L52.469,33.758 L52.469,7.878 L55.252,7.878 L55.252,6.023 L52.469,6.023 L52.469,0.353 L51.541,0.353 L51.541,13.345 L48.758,13.345 L48.758,15.199 L51.541,15.199 L51.541,33.758 L51.541,33.758 Z" id="Shape" fill="#000000" sketch:type="MSShapeGroup"></path>
            <g id="Group" transform="translate(0.000000, 38.000000)" fill="#030303" sketch:type="MSShapeGroup">
                <path d="M5.858,4.711 C5.858,4.773 5.803,4.826 5.735,4.826 L4.909,4.826 C4.84,4.826 4.785,4.772 4.785,4.711 L4.785,1.525 L3.676,3.463 C3.63,3.547 3.592,3.586 3.492,3.586 L2.855,3.586 C2.764,3.586 2.718,3.547 2.672,3.463 L1.531,1.525 L1.531,4.711 C1.531,4.773 1.476,4.826 1.408,4.826 L0.581,4.826 C0.513,4.826 0.458,4.772 0.458,4.711 L0.458,-0.273 C0.458,-0.335 0.513,-0.388 0.581,-0.388 L1.454,-0.388 C1.546,-0.388 1.607,-0.372 1.669,-0.265 L3.154,2.315 L4.647,-0.265 C4.701,-0.372 4.762,-0.388 4.853,-0.388 L5.734,-0.388 C5.802,-0.388 5.857,-0.335 5.857,-0.273 L5.857,4.711 L5.858,4.711 Z" id="Shape"></path>
                <path d="M7.562,4.695 C7.531,4.787 7.469,4.826 7.37,4.826 L6.514,4.826 C6.437,4.826 6.406,4.787 6.406,4.734 C6.406,4.711 6.414,4.688 6.422,4.657 L8.206,-0.289 C8.229,-0.381 8.291,-0.411 8.39,-0.411 L9.301,-0.411 C9.401,-0.411 9.462,-0.381 9.486,-0.289 L11.246,4.657 C11.254,4.688 11.263,4.711 11.263,4.734 C11.263,4.787 11.233,4.826 11.156,4.826 L10.275,4.826 C10.168,4.826 10.107,4.787 10.083,4.695 L9.77,3.769 L7.879,3.769 L7.562,4.695 L7.562,4.695 Z M8.833,0.929 L8.151,2.889 L9.499,2.889 L8.833,0.929 L8.833,0.929 Z" id="Shape"></path>
                <path d="M15.49,4.451 C14.955,4.749 14.349,4.826 13.775,4.826 L11.921,4.826 C11.853,4.826 11.799,4.772 11.799,4.711 L11.799,-0.273 C11.799,-0.335 11.853,-0.388 11.921,-0.388 L13.875,-0.388 C14.678,-0.388 15.421,-0.235 16.025,0.408 C16.409,0.814 16.653,1.405 16.653,2.216 C16.654,3.156 16.317,3.983 15.49,4.451 L15.49,4.451 Z M12.902,3.899 L13.698,3.899 C14.09,3.899 14.449,3.837 14.748,3.692 C15.299,3.418 15.528,2.88 15.528,2.214 C15.528,1.678 15.382,1.294 15.131,1.026 C14.818,0.69 14.319,0.536 13.722,0.536 L12.903,0.536 L12.903,3.899 L12.902,3.899 Z" id="Shape"></path>
                <path d="M21.145,-0.389 C21.213,-0.389 21.268,-0.336 21.268,-0.274 L21.268,0.476 C21.268,0.537 21.213,0.591 21.145,0.591 L18.435,0.591 L18.435,1.716 L20.747,1.716 C20.808,1.716 20.862,1.77 20.862,1.831 L20.862,2.573 C20.862,2.642 20.807,2.696 20.747,2.696 L18.435,2.696 L18.435,3.852 L21.145,3.852 C21.213,3.852 21.268,3.898 21.268,3.967 L21.268,4.709 C21.268,4.771 21.213,4.824 21.145,4.824 L17.455,4.824 C17.387,4.824 17.332,4.77 17.332,4.709 L17.332,-0.275 C17.332,-0.337 17.387,-0.39 17.455,-0.39 L21.145,-0.39 L21.145,-0.389 Z" id="Shape"></path>
                <path d="M25.03,-0.389 C25.099,-0.389 25.145,-0.336 25.145,-0.274 L25.145,4.71 C25.145,4.772 25.099,4.825 25.03,4.825 L24.166,4.825 C24.097,4.825 24.043,4.771 24.043,4.71 L24.043,-0.274 C24.043,-0.336 24.097,-0.389 24.166,-0.389 L25.03,-0.389 L25.03,-0.389 Z" id="Shape"></path>
                <path d="M29.779,-0.273 C29.779,-0.335 29.834,-0.388 29.894,-0.388 L30.721,-0.388 C30.783,-0.388 30.836,-0.335 30.836,-0.273 L30.836,4.711 C30.836,4.773 30.782,4.826 30.721,4.826 L29.956,4.826 C29.863,4.826 29.81,4.81 29.74,4.711 L27.236,1.449 L27.236,4.711 C27.236,4.773 27.183,4.826 27.122,4.826 L26.303,4.826 C26.235,4.826 26.18,4.772 26.18,4.711 L26.18,-0.273 C26.18,-0.335 26.235,-0.388 26.303,-0.388 L27.069,-0.388 C27.161,-0.388 27.207,-0.357 27.275,-0.265 L29.779,2.997 L29.779,-0.273 L29.779,-0.273 Z" id="Shape"></path>
                <path d="M37.082,2.865 L38.216,4.627 C38.27,4.719 38.278,4.826 38.147,4.826 L37.191,4.826 C37.083,4.826 37.021,4.81 36.968,4.711 L35.942,3.02 L34.954,3.02 L34.954,4.711 C34.954,4.773 34.908,4.826 34.84,4.826 L33.974,4.826 C33.906,4.826 33.852,4.772 33.852,4.711 L33.852,-0.273 C33.852,-0.335 33.906,-0.388 33.974,-0.388 L36.211,-0.388 C36.717,-0.388 37.175,-0.296 37.526,-0.035 C37.911,0.247 38.132,0.737 38.132,1.305 C38.132,1.803 37.948,2.247 37.55,2.584 C37.396,2.713 37.243,2.797 37.082,2.865 L37.082,2.865 Z M34.953,0.546 L34.953,2.085 L36.026,2.085 C36.309,2.085 36.538,2.062 36.699,1.955 C36.883,1.84 37.013,1.625 37.013,1.318 C37.013,1.012 36.899,0.813 36.722,0.691 C36.553,0.584 36.347,0.545 36.117,0.545 L34.953,0.545 L34.953,0.546 Z" id="Shape"></path>
                <path d="M42.361,-0.273 C42.361,-0.335 42.414,-0.388 42.484,-0.388 L43.348,-0.388 C43.418,-0.388 43.463,-0.335 43.463,-0.273 L43.463,2.766 C43.463,3.356 43.303,3.846 42.988,4.205 C42.596,4.65 41.984,4.902 41.196,4.902 C40.415,4.902 39.801,4.65 39.42,4.205 C39.107,3.846 38.938,3.355 38.938,2.766 L38.938,-0.273 C38.938,-0.335 38.992,-0.388 39.053,-0.388 L39.926,-0.388 C39.987,-0.388 40.041,-0.335 40.041,-0.273 L40.041,2.637 C40.041,3.027 40.125,3.326 40.301,3.532 C40.515,3.794 40.821,3.892 41.197,3.892 C41.588,3.892 41.894,3.793 42.109,3.532 C42.276,3.327 42.361,3.027 42.361,2.637 L42.361,-0.273 L42.361,-0.273 Z" id="Shape"></path>
                <path d="M44.271,4.412 C44.217,4.381 44.194,4.328 44.224,4.267 L44.577,3.524 C44.608,3.462 44.661,3.439 44.723,3.478 C45.076,3.7 45.52,3.953 46.124,3.953 C46.399,3.953 46.6,3.891 46.722,3.801 C46.891,3.678 46.944,3.502 46.944,3.356 C46.944,3.042 46.669,2.875 46.293,2.745 C45.881,2.591 45.359,2.491 44.915,2.216 C44.54,1.971 44.265,1.634 44.265,1.028 C44.265,0.585 44.449,0.202 44.808,-0.066 C45.138,-0.312 45.628,-0.457 46.248,-0.457 C47.052,-0.457 47.58,-0.243 47.917,-0.06 C47.979,-0.03 47.994,0.033 47.963,0.086 L47.61,0.828 C47.58,0.883 47.526,0.906 47.464,0.867 C47.112,0.676 46.676,0.5 46.186,0.5 C45.933,0.5 45.742,0.553 45.62,0.63 C45.49,0.722 45.429,0.844 45.429,0.983 C45.429,1.266 45.704,1.411 46.095,1.542 C46.554,1.688 47.114,1.786 47.55,2.094 C47.894,2.331 48.147,2.698 48.147,3.265 C48.147,3.786 47.933,4.192 47.573,4.468 C47.214,4.75 46.708,4.904 46.141,4.904 C45.29,4.902 44.67,4.65 44.271,4.412 L44.271,4.412 Z" id="Shape"></path>
                <path d="M48.555,4.412 C48.501,4.381 48.478,4.328 48.509,4.267 L48.861,3.524 C48.891,3.462 48.946,3.439 49.007,3.478 C49.359,3.7 49.804,3.953 50.409,3.953 C50.684,3.953 50.883,3.891 51.006,3.801 C51.174,3.678 51.229,3.502 51.229,3.356 C51.229,3.042 50.953,2.875 50.578,2.745 C50.164,2.591 49.643,2.491 49.2,2.216 C48.824,1.971 48.55,1.634 48.55,1.028 C48.55,0.585 48.734,0.202 49.093,-0.066 C49.423,-0.312 49.911,-0.457 50.532,-0.457 C51.336,-0.457 51.863,-0.243 52.201,-0.06 C52.263,-0.03 52.278,0.033 52.248,0.086 L51.894,0.828 C51.863,0.883 51.811,0.906 51.749,0.867 C51.395,0.676 50.959,0.5 50.471,0.5 C50.218,0.5 50.026,0.553 49.903,0.63 C49.774,0.722 49.714,0.844 49.714,0.983 C49.714,1.266 49.988,1.411 50.378,1.542 C50.838,1.688 51.397,1.786 51.833,2.094 C52.179,2.331 52.432,2.698 52.432,3.265 C52.432,3.786 52.218,4.192 51.857,4.468 C51.498,4.75 50.992,4.904 50.425,4.904 C49.573,4.902 48.953,4.65 48.555,4.412 L48.555,4.412 Z" id="Shape"></path>
                <path d="M54.201,-0.389 C54.269,-0.389 54.315,-0.336 54.315,-0.274 L54.315,4.71 C54.315,4.772 54.269,4.825 54.201,4.825 L53.335,4.825 C53.267,4.825 53.213,4.771 53.213,4.71 L53.213,-0.274 C53.213,-0.336 53.267,-0.389 53.335,-0.389 L54.201,-0.389 L54.201,-0.389 Z" id="Shape"></path>
                <path d="M56.017,4.695 C55.987,4.787 55.925,4.826 55.825,4.826 L54.969,4.826 C54.892,4.826 54.862,4.787 54.862,4.734 C54.862,4.711 54.871,4.688 54.878,4.657 L56.661,-0.289 C56.685,-0.381 56.746,-0.411 56.845,-0.411 L57.757,-0.411 C57.857,-0.411 57.918,-0.381 57.941,-0.289 L59.702,4.657 C59.71,4.688 59.718,4.711 59.718,4.734 C59.718,4.787 59.688,4.826 59.611,4.826 L58.73,4.826 C58.623,4.826 58.562,4.787 58.539,4.695 L58.226,3.769 L56.334,3.769 L56.017,4.695 L56.017,4.695 Z M57.288,0.929 L56.606,2.889 L57.955,2.889 L57.288,0.929 L57.288,0.929 Z" id="Shape"></path>
            </g>
        </g>
    </g>
</svg>